Coordinates
version=1
nRows=11
nColumns=40
inDegrees=yes

Units are S.I. units (second, meters, Newtons, ...)
Angles are in degrees.

endheader
time	pelvis_tilt	pelvis_list	pelvis_rotation	pelvis_tx	pelvis_ty	pelvis_tz	hip_flexion_r	hip_adduction_r	hip_rotation_r	knee_angle_r	knee_angle_r_beta	ankle_angle_r	subtalar_angle_r	mtp_angle_r	hip_flexion_l	hip_adduction_l	hip_rotation_l	knee_angle_l	knee_angle_l_beta	ankle_angle_l	subtalar_angle_l	mtp_angle_l	lumbar_extension	lumbar_bending	lumbar_rotation	arm_flex_r	arm_add_r	arm_rot_r	elbow_flex_r	pro_sup_r	wrist_flex_r	wrist_dev_r	arm_flex_l	arm_add_l	arm_rot_l	elbow_flex_l	pro_sup_l	wrist_flex_l	wrist_dev_l
     26.05242857	     -5.50074650	     -3.30302163	     -1.11160927	      0.91073755	      0.92253453	      0.43332610	     25.11706286	     -2.03985297	    -13.98913202	     17.10151647	     17.10151647	      4.21450741	      1.48509905	      2.61931920	      5.92936848	     -6.73471816	     -8.16686170	     18.39035590	     18.39035590	     18.05224967	    -10.17216629	      0.78509529	     -9.90466340	      5.83071939	      6.36833088	     -4.88143388	    -20.03665025	    -25.90235741	     27.40436379	     47.63605488	      0.00000000	      0.00000000	     22.83217991	    -46.46532108	    -12.05227677	     42.48431789	     47.32555217	      0.00000000	      0.00000000
     26.06485714	     -5.39938297	     -3.16355203	     -1.08474900	      0.91276748	      0.92170453	      0.43622740	     24.68294537	     -1.90714760	    -13.84888373	     17.10862252	     17.10862252	      4.02941118	      1.55869113	      2.49179004	      5.55427039	     -6.81173456	     -8.08495974	     18.80527948	     18.80527948	     18.29090698	    -10.35825510	      0.73519660	     -9.71376728	      5.73831934	      6.32552753	     -5.15981612	    -20.13690690	    -25.95883882	     27.34604419	     47.63833260	      0.00000000	      0.00000000	     22.69386359	    -46.32130479	    -12.02049299	     42.44040761	     47.32197667	      0.00000000	      0.00000000
     26.07728571	     -5.22720410	     -3.28277941	     -1.03319280	      0.91459334	      0.92109899	      0.43945874	     23.84337205	     -1.36601605	    -13.49769228	     16.44155361	     16.44155361	      1.74213135	      0.44549080	     -3.31186616	      5.61794581	     -7.29349309	     -7.94666123	     20.24888500	     20.24888500	     19.47137419	    -10.33566422	      2.69122554	     -9.70057430	      5.95122442	      6.77473280	     -5.94498971	    -20.14675451	    -26.92255490	     28.23315114	     47.56308020	      0.00000000	      0.00000000	     23.07558697	    -45.90363995	    -11.41968375	     42.55451885	     47.35991506	      0.00000000	      0.00000000
     26.08971429	     -5.11805524	     -3.36897753	     -0.98462345	      0.91612789	      0.92086491	      0.44272810	     23.49514508	     -1.04988159	    -13.31062805	     16.85864723	     16.85864723	      1.74181756	      0.09752311	     -3.59388446	      5.72479187	     -7.71089899	     -7.68784529	     21.48143406	     21.48143406	     19.47009148	    -10.92534824	      2.54710977	     -9.61734106	      6.10344860	      6.86120111	     -5.94050107	    -20.22683736	    -26.99798201	     28.18909568	     47.55723820	      0.00000000	      0.00000000	     23.01539548	    -45.59018342	    -11.30543844	     42.56565037	     47.35916805	      0.00000000	      0.00000000
     26.10214286	     -4.96114897	     -3.47795917	     -0.93502431	      0.91745488	      0.92099785	      0.44606525	     23.12136910	     -0.72994388	    -13.10052821	     17.36480517	     17.36480517	      1.88053688	     -0.34375411	     -3.97909799	      5.97043319	     -8.18912564	     -7.40410877	     23.01831434	     23.01831434	     19.30276258	    -11.55213924	      2.39844153	     -9.63140160	      6.26885213	      6.97897483	     -5.76605105	    -20.30595851	    -27.05579422	     28.17755458	     47.55112118	      0.00000000	      0.00000000	     22.96110420	    -45.26306152	    -11.17705636	     42.59856915	     47.35629451	      0.00000000	      0.00000000
     26.11457143	     -4.66184507	     -3.53077097	     -0.90602219	      0.91862571	      0.92173427	      0.44948398	     22.54226054	     -0.47638638	    -12.96136494	     17.79397778	     17.79397778	      2.20807432	     -0.54900415	     -4.24713684	      6.15325270	     -8.63256088	     -7.16621346	     24.68896784	     24.68896784	     18.92478440	    -12.14463984	      2.25355987	     -9.87192365	      6.35425349	      7.10639379	     -5.38935484	    -20.34796239	    -27.05760974	     28.25277229	     47.54589864	      0.00000000	      0.00000000	     22.90386742	    -44.91865583	    -11.06525179	     42.60849159	     47.34857520	      0.00000000	      0.00000000
     26.12700000	     -4.65585590	     -3.71570531	     -0.73916081	      0.91929469	      0.92213172	      0.45283932	     22.28849449	     -0.13033397	    -12.98427702	     18.20258754	     18.20258754	      2.51558956	     -0.93796215	     -4.52768398	      7.14288666	     -9.27597246	     -6.63479754	     27.10509488	     27.10509488	     18.38907347	    -12.92441084	      1.90519154	     -9.74034438	      6.60361611	      7.10371119	     -4.92581627	    -20.38023900	    -27.05806910	     28.27950276	     47.53760003	      0.00000000	      0.00000000	     22.90972240	    -44.56488389	    -10.85577453	     42.65265794	     47.33741123	      0.00000000	      0.00000000
     26.13942857	     -4.47264142	     -3.82808661	     -0.59693756	      0.91983453	      0.92305789	      0.45622353	     21.74709734	      0.15245623	    -13.06703069	     18.40204765	     18.40204765	      2.94464312	     -1.02347860	     -4.71720180	      7.99237773	     -9.84108565	     -6.11243895	     29.56588690	     29.56588690	     17.63286290	    -13.61422477	      1.59851298	     -9.89766632	      6.71566677	      7.13700114	     -4.25106762	    -20.39481074	    -27.01768337	     28.38986250	     47.52645905	      0.00000000	      0.00000000	     22.94748107	    -44.24928779	    -10.63160506	     42.65900625	     47.32330291	      0.00000000	      0.00000000
     26.15185714	     -4.28521834	     -3.92910271	     -0.43482506	      0.92015194	      0.92410529	      0.45954829	     21.12561650	      0.42080083	    -13.27457708	     18.41936326	     18.41936326	      3.40931749	     -0.90818425	     -4.85053345	      9.01918146	    -10.39130045	     -5.49002874	     32.27024364	     32.27024364	     16.69689066	    -14.28658027	      1.31078117	    -10.07499564	      6.80673329	      7.14156438	     -3.44379135	    -20.39774188	    -26.94603104	     28.56841903	     47.51311561	      0.00000000	      0.00000000	     23.05344421	    -43.95302527	    -10.40028511	     42.66572216	     47.30793766	      0.00000000	      0.00000000
     26.16428571	     -4.23726021	     -4.03346770	     -0.18885610	      0.92019544	      0.92499632	      0.46263831	     20.57828481	      0.65474037	    -13.68829439	     18.24888120	     18.24888120	      3.84780621	     -0.56950301	     -4.93335173	     10.40458232	    -10.90111511	     -4.64008344	     35.20680171	     35.20680171	     15.60740327	    -14.96281537	      1.01115862	    -10.06540322	      6.96064994	      7.06438593	     -2.58568670	    -20.40075732	    -26.82648606	     28.72641027	     47.49483808	      0.00000000	      0.00000000	     23.08671962	    -43.62378231	    -10.04841256	     42.56716098	     47.28121229	      0.00000000	      0.00000000
     26.17671429	     -4.08634570	     -4.11037547	      0.04556462	      0.92009886	      0.92602133	      0.46568908	     19.88609179	      0.87813402	    -14.11084705	     17.98142779	     17.98142779	      4.29144854	     -0.14044598	     -5.01667698	     11.73960804	    -11.34633002	     -3.75233215	     38.17116012	     38.17116012	     14.44194618	    -15.54839120	      0.85290703	    -10.22336410	      7.04396679	      7.03087194	     -1.57493866	    -20.40792287	    -26.68133903	     28.98432200	     47.47415854	      0.00000000	      0.00000000	     23.27944161	    -43.38427193	     -9.74723873	     42.53350046	     47.26046428	      0.00000000	      0.00000000
